<svg width="31" height="31" viewBox="0 0 31 31" fill="none" xmlns="http://www.w3.org/2000/svg">
<g clip-path="url(#clip0_2_20)">
<path d="M5.34247 15.5375C6.01372 12.1775 6.34997 10.5 7.45872 9.4175C7.66364 9.21805 7.88528 9.03656 8.12122 8.875C9.39997 8 11.1125 8 14.5375 8H16.6662C20.09 8 21.8012 8 23.0787 8.875C23.3162 9.0375 23.5375 9.22 23.7412 9.41875C24.8512 10.5 25.1875 12.1788 25.8587 15.5363C26.8225 20.3563 27.305 22.7663 26.195 24.4738C25.995 24.7838 25.76 25.07 25.495 25.3275C24.0375 26.75 21.5812 26.75 16.6662 26.75H14.5375C9.62122 26.75 7.16372 26.75 5.70622 25.3275C5.44251 25.0696 5.20817 24.7833 5.00747 24.4738C3.89747 22.7663 4.37997 20.3563 5.34497 15.5363L5.34247 15.5375Z" stroke="#282828" stroke-width="1.5"/>
<path d="M19.35 13C20.0403 13 20.6 12.4404 20.6 11.75C20.6 11.0596 20.0403 10.5 19.35 10.5C18.6596 10.5 18.1 11.0596 18.1 11.75C18.1 12.4404 18.6596 13 19.35 13Z" fill="#282828"/>
<path d="M11.85 13C12.5403 13 13.1 12.4404 13.1 11.75C13.1 11.0596 12.5403 10.5 11.85 10.5C11.1596 10.5 10.6 11.0596 10.6 11.75C10.6 12.4404 11.1596 13 11.85 13Z" fill="#282828"/>
<path d="M11.85 8V6.75C11.85 5.75544 12.2451 4.80161 12.9483 4.09835C13.6516 3.39509 14.6054 3 15.6 3C16.5945 3 17.5484 3.39509 18.2516 4.09835C18.9549 4.80161 19.35 5.75544 19.35 6.75V8" stroke="#282828" stroke-width="1.5" stroke-linecap="round"/>
<circle cx="23.1" cy="23" r="7.5" fill="#FF9900"/>
<path d="M20.7427 26.5V25.555L23.1727 23.26C23.3647 23.086 23.5057 22.93 23.5957 22.792C23.6857 22.654 23.7457 22.528 23.7757 22.414C23.8117 22.3 23.8297 22.195 23.8297 22.099C23.8297 21.847 23.7427 21.655 23.5687 21.523C23.4007 21.385 23.1517 21.316 22.8217 21.316C22.5577 21.316 22.3117 21.367 22.0837 21.469C21.8617 21.571 21.6727 21.73 21.5167 21.946L20.4547 21.262C20.6947 20.902 21.0307 20.617 21.4627 20.407C21.8947 20.197 22.3927 20.092 22.9567 20.092C23.4247 20.092 23.8327 20.17 24.1807 20.326C24.5347 20.476 24.8077 20.689 24.9997 20.965C25.1977 21.241 25.2967 21.571 25.2967 21.955C25.2967 22.159 25.2697 22.363 25.2157 22.567C25.1677 22.765 25.0657 22.975 24.9097 23.197C24.7597 23.419 24.5377 23.668 24.2437 23.944L22.2277 25.843L21.9487 25.312H25.5037V26.5H20.7427Z" fill="#F0F0F0"/>
</g>
<defs>
<clipPath id="clip0_2_20">
<rect width="30" height="30" fill="white" transform="translate(0.599976 0.5)"/>
</clipPath>
</defs>
</svg>
