<svg width="128" height="23" viewBox="0 0 128 23" fill="none" xmlns="http://www.w3.org/2000/svg">
<path d="M3.89152 16.3297C5.28461 16.119 6.55689 15.4052 7.47622 14.3186C8.39555 13.2319 8.90063 11.8448 8.8993 10.4104C8.90631 8.60976 9.54764 6.87152 10.7066 5.51182C11.8657 4.15211 13.4653 3.26129 15.2147 3.00137L17.7235 2.63634C17.6557 2.55742 17.5975 2.47849 17.5201 2.39957C14.3623 -0.816594 8.29876 0.150228 3.95932 4.55026C0.288242 8.33862 -0.951596 13.37 0.753181 16.7835L3.89152 16.3297Z" fill="#301607"/>
<path d="M10.4104 10.4104C10.404 12.2107 9.76439 13.949 8.6075 15.3101C7.4506 16.6713 5.85305 17.565 4.10462 17.8293L1.7218 18.1746L1.8671 18.3423C5.02481 21.5584 11.0884 20.6015 15.4278 16.2014C19.0795 12.492 20.3581 7.45072 18.663 4.08658L15.4278 4.56012C14.0436 4.76492 12.777 5.46723 11.8568 6.54015C10.9366 7.61307 10.4236 8.98583 10.4104 10.4104Z" fill="#301607"/>
<path d="M40.0894 4.81307C40.0894 5.66545 39.4617 6.24081 38.6876 6.24081C37.767 6.24081 37.4322 5.55891 35.5702 5.55891C33.1432 5.55891 31.1346 7.58331 31.1346 10.247C31.1346 12.9959 33.0804 14.9351 35.5702 14.9351C37.5996 14.9351 37.9971 14.2106 38.8968 14.2106C39.6709 14.2106 40.2986 14.8073 40.2986 15.6383C40.2986 16.3415 39.7128 16.853 39.0432 17.13C38.1017 17.4923 36.951 17.7267 35.5911 17.7267C31.2392 17.7267 27.9754 14.8286 27.9754 10.247C27.9754 6.00641 31.5322 2.80997 35.6329 2.80997C36.9719 2.80997 37.9553 3.00176 38.8759 3.34271C39.6082 3.61974 40.0894 4.10986 40.0894 4.81307Z" fill="#301607"/>
<path d="M44.9705 12.655C44.9705 14.2319 45.912 15.3613 47.4184 15.3613C48.9248 15.3613 49.8663 14.2319 49.8663 12.655C49.8663 11.0781 48.9248 9.94868 47.4184 9.94868C45.912 9.94868 44.9705 11.0781 44.9705 12.655ZM42.2506 12.655C42.2506 9.47987 44.5311 7.56201 47.4184 7.56201C50.3056 7.56201 52.6071 9.47987 52.6071 12.655C52.6071 15.8301 50.3056 17.7267 47.4184 17.7267C44.5311 17.7267 42.2506 15.8301 42.2506 12.655Z" fill="#301607"/>
<path d="M58.5974 7.75379H62.0705V7.02927C62.0705 4.83438 62.8446 2.83128 65.2507 2.83128C66.1085 2.83128 66.8826 2.98045 67.4684 3.23617C68.1798 3.5345 68.6401 3.93938 68.6401 4.59998C68.6401 5.17533 68.1798 5.66545 67.594 5.66545C67.3011 5.66545 67.0709 5.49498 66.778 5.36712C66.4432 5.21795 66.1503 5.17533 65.8574 5.17533C65.0624 5.17533 64.8322 5.64415 64.8322 6.77355V7.75379H66.6315C67.2174 7.75379 67.6777 8.28653 67.6777 8.86189C67.6777 9.47987 67.2174 9.96999 66.6315 9.96999H64.8322V16.3628C64.8322 17.1087 64.2046 17.7267 63.4514 17.7267C62.6982 17.7267 62.0705 17.1087 62.0705 16.3628V9.96999H58.5974V16.3628C58.5974 17.1087 57.9697 17.7267 57.2165 17.7267C56.4633 17.7267 55.8357 17.1087 55.8357 16.3628V9.96999H55.1452C54.5594 9.96999 54.0782 9.47987 54.0782 8.86189C54.0782 8.28653 54.5594 7.75379 55.1452 7.75379H55.8357V6.77355C55.8357 4.91962 56.6307 3.04438 58.9531 3.04438C59.7063 3.04438 60.2921 3.15093 60.8361 3.38533C61.4847 3.66236 61.924 4.08855 61.924 4.72783C61.924 5.3245 61.5265 5.79331 61.0244 5.79331C60.7942 5.79331 60.6269 5.72938 60.3967 5.64414C60.1666 5.55891 59.9364 5.49498 59.6644 5.49498C58.8275 5.49498 58.5974 6.2195 58.5974 6.98665V7.75379Z" fill="#301607"/>
<path d="M76.8153 14.8286C77.4011 14.8286 77.8405 15.34 77.8405 15.958C77.8405 16.5333 77.443 16.9382 76.6479 17.2579C75.7901 17.6201 74.8486 17.7267 73.928 17.7267C72.317 17.7267 71.0198 17.2152 70.1411 16.2989C69.2414 15.3613 68.7393 14.0614 68.7393 12.5271C68.7393 11.0568 69.2624 9.79951 70.0992 8.92582C70.9361 8.07343 72.1287 7.56201 73.6351 7.56201C75.1834 7.56201 76.2922 8.07343 77.0454 8.84058C77.966 9.79951 78.238 10.9502 78.238 11.9092C78.238 12.9107 77.7359 13.4861 76.8781 13.4861H71.6475C71.8986 14.7859 72.7564 15.4892 74.1163 15.4892C75.5809 15.4892 76.1249 14.8286 76.8153 14.8286ZM71.6266 11.6321H75.56C75.4763 10.6093 74.7858 9.7782 73.656 9.7782C72.5053 9.7782 71.8149 10.5027 71.6266 11.6321Z" fill="#301607"/>
<path d="M88.4353 14.8286C89.0211 14.8286 89.4605 15.34 89.4605 15.958C89.4605 16.5333 89.063 16.9382 88.2679 17.2579C87.4101 17.6201 86.4686 17.7267 85.548 17.7267C83.937 17.7267 82.6398 17.2152 81.7611 16.2989C80.8615 15.3613 80.3593 14.0614 80.3593 12.5271C80.3593 11.0568 80.8824 9.79951 81.7193 8.92582C82.5562 8.07343 83.7487 7.56201 85.2551 7.56201C86.8034 7.56201 87.9123 8.07343 88.6655 8.84058C89.586 9.79951 89.858 10.9502 89.858 11.9092C89.858 12.9107 89.3559 13.4861 88.4981 13.4861H83.2675C83.5186 14.7859 84.3764 15.4892 85.7364 15.4892C87.2009 15.4892 87.7449 14.8286 88.4353 14.8286ZM83.2466 11.6321H87.18C87.0963 10.6093 86.4059 9.7782 85.2761 9.7782C84.1253 9.7782 83.4349 10.5027 83.2466 11.6321Z" fill="#301607"/>
<path d="M103.256 13.5713C103.256 16.2776 100.871 17.5136 98.5071 17.5136H94.1134C93.2556 17.5136 92.607 16.853 92.607 16.0219V4.49343C92.607 3.66236 93.2556 3.00176 94.1134 3.00176H97.7539C99.8671 3.00176 102.085 4.17379 102.085 6.68831C102.085 8.15867 101.457 9.26677 100.306 9.79951V9.84213C102.357 10.3322 103.256 11.6747 103.256 13.5713ZM99.072 7.09319C99.072 6.02772 98.2351 5.47367 97.2099 5.47367H95.6198V8.90451H97.189C97.9631 8.90451 99.072 8.58486 99.072 7.09319ZM100.181 13.1877C100.181 12.1222 99.4695 11.3551 97.733 11.3551H95.6198V15.0203H97.8376C99.072 15.0203 100.181 14.6581 100.181 13.1877Z" fill="#301607"/>
<path d="M105.958 13.2943V8.92582C105.958 8.17998 106.565 7.56201 107.339 7.56201C108.113 7.56201 108.72 8.17998 108.72 8.92582V13.1238C108.72 13.6778 108.804 14.0827 108.992 14.445C109.285 14.9777 109.829 15.34 110.708 15.34C111.586 15.34 112.13 14.9777 112.402 14.445C112.591 14.0827 112.674 13.6778 112.674 13.1238V8.92582C112.674 8.17998 113.281 7.56201 114.055 7.56201C114.829 7.56201 115.436 8.17998 115.436 8.92582V13.2943C115.436 14.5728 115.164 15.4892 114.599 16.1924C113.762 17.2579 112.402 17.7267 110.708 17.7267C108.992 17.7267 107.611 17.2365 106.795 16.1924C106.251 15.4678 105.958 14.5728 105.958 13.2943Z" fill="#301607"/>
<path d="M126.094 7.5407C126.93 7.5407 127.6 8.2226 127.6 9.07498C127.6 9.45855 127.433 9.82082 127.328 10.1192L124.399 18.0463C123.206 21.264 121.03 22.5 119.106 22.5C118.352 22.5 117.767 21.9033 117.767 21.1575C117.767 20.4117 118.352 19.815 119.106 19.815C120.152 19.815 120.884 19.3036 121.407 18.1955L117.787 10.1405C117.662 9.86344 117.453 9.43725 117.453 9.1176C117.453 8.24391 118.143 7.5407 118.98 7.5407C119.838 7.5407 120.277 8.15867 120.445 8.56355L122.767 14.5302L124.587 8.84058C124.838 8.00951 125.382 7.5407 126.094 7.5407Z" fill="#301607"/>
</svg>
